<?xml version="1.0" standalone="no"?>
<!DOCTYPE svg PUBLIC "-//W3C//DTD SVG 20010904//EN"
 "http://www.w3.org/TR/2001/REC-SVG-20010904/DTD/svg10.dtd">
<svg version="1.0" xmlns="http://www.w3.org/2000/svg"
 width="204.000000pt" height="192.000000pt" viewBox="0 0 204.000000 192.000000"
 preserveAspectRatio="xMidYMid meet">

<g transform="translate(0.000000,192.000000) scale(0.100000,-0.100000)"
fill="#000000" stroke="none">
<path d="M910 1797 c-41 -24 -122 -70 -180 -102 -58 -32 -134 -75 -170 -95
-36 -21 -114 -64 -174 -96 -60 -33 -122 -71 -138 -86 l-28 -26 0 -435 c0 -399
1 -437 18 -456 9 -12 80 -56 157 -99 77 -43 242 -135 367 -205 156 -87 237
-127 258 -127 20 0 79 27 168 77 75 42 166 93 202 113 36 20 141 79 233 130
93 52 175 103 183 115 11 17 14 104 16 455 l2 433 -30 24 c-16 14 -74 50 -129
80 -55 30 -139 77 -187 104 -49 27 -130 72 -180 101 -51 28 -127 71 -169 95
-98 55 -123 55 -219 0z m259 -263 c77 -19 125 -42 203 -96 57 -40 158 -150
158 -172 0 -7 -35 -32 -77 -56 -43 -24 -100 -57 -126 -73 l-48 -30 -42 43
c-68 68 -128 95 -217 94 -87 0 -143 -22 -204 -82 -59 -57 -81 -112 -81 -208 0
-70 4 -88 30 -140 57 -110 188 -172 311 -146 67 14 147 62 177 108 l23 32 129
-70 c72 -39 132 -72 133 -74 9 -7 -62 -95 -117 -147 -106 -98 -257 -157 -401
-157 -322 0 -600 275 -600 593 0 226 131 435 340 542 101 52 285 70 409 39z"/>
</g>
</svg>
