<?xml version="1.0" standalone="no"?>
<!DOCTYPE svg PUBLIC "-//W3C//DTD SVG 20010904//EN"
 "http://www.w3.org/TR/2001/REC-SVG-20010904/DTD/svg10.dtd">
<svg version="1.0" xmlns="http://www.w3.org/2000/svg"
 width="280.000000pt" height="180.000000pt" viewBox="0 0 280.000000 180.000000"
 preserveAspectRatio="xMidYMid meet">

<g transform="translate(0.000000,180.000000) scale(0.100000,-0.100000)"
fill="#000000" stroke="none">
<path d="M1335 1775 c-121 -23 -922 -165 -929 -165 -3 0 -6 -317 -6 -704 0
-662 1 -705 17 -710 10 -3 236 -44 503 -91 267 -47 495 -88 508 -90 22 -5 22
-5 22 115 l0 120 378 0 c281 0 381 3 390 12 9 9 12 169 12 658 0 614 -1 648
-18 663 -17 15 -58 17 -390 17 l-372 0 0 95 c0 109 9 103 -115 80z m845 -855
l0 -620 -365 0 -365 0 0 80 0 80 280 0 280 0 0 35 0 35 -280 0 -280 0 0 65 0
65 280 0 280 0 0 30 0 30 -280 0 -280 0 0 105 0 104 28 -25 c60 -56 146 -77
227 -54 88 25 174 127 175 208 l0 32 -120 0 -120 0 0 125 0 125 -30 0 c-40 0
-87 -20 -127 -54 l-33 -28 0 141 0 141 365 0 365 0 0 -620z m-1139 240 c44
-46 54 -84 46 -176 -8 -107 -79 -183 -172 -184 -74 -1 -75 -2 -75 -112 l0 -99
-52 3 -53 3 -3 303 -2 302 136 0 137 0 38 -40z"/>
<path d="M1680 1255 l0 -125 120 0 c135 0 133 -2 108 81 -23 78 -134 169 -205
169 -23 0 -23 -2 -23 -125z"/>
<path d="M852 1003 l3 -88 35 2 c46 2 70 32 70 89 0 56 -25 84 -75 84 l-36 0
3 -87z"/>
</g>
</svg>
